HIERARCHY
ROOT Hips
{
	OFFSET 0.00000 0.00000 0.00000
	CHANNELS 6 Xposition Yposition Zposition Zrotation Yrotation Xrotation 
	JOINT LHipJoint
	{
		OFFSET 0 0 0
		CHANNELS 3 Zrotation Yrotation Xrotation
		JOINT LeftUpLeg
		{
			OFFSET 1.82298 -1.58346 0.87084
			CHANNELS 3 Zrotation Yrotation Xrotation
			JOINT LeftLeg
			{
				OFFSET 2.43790 -6.69809 0.00000
				CHANNELS 3 Zrotation Yrotation Xrotation
				JOINT LeftFoot
				{
					OFFSET 2.59288 -7.12389 0.00000
					CHANNELS 3 Zrotation Yrotation Xrotation
					JOINT LeftToeBase
					{
						OFFSET 0.14552 -0.39981 2.13160
						CHANNELS 3 Zrotation Yrotation Xrotation
						End Site
						{
							OFFSET 0.00000 -0.00000 1.09427
						}
					}
				}
			}
		}
	}
	JOINT RHipJoint
	{
		OFFSET 0 0 0
		CHANNELS 3 Zrotation Yrotation Xrotation
		JOINT RightUpLeg
		{
			OFFSET -1.77229 -1.58346 0.87084
			CHANNELS 3 Zrotation Yrotation Xrotation
			JOINT RightLeg
			{
				OFFSET -2.50703 -6.88801 0.00000
				CHANNELS 3 Zrotation Yrotation Xrotation
				JOINT RightFoot
				{
					OFFSET -2.61620 -7.18796 0.00000
					CHANNELS 3 Zrotation Yrotation Xrotation
					JOINT RightToeBase
					{
						OFFSET -0.15190 -0.41735 2.15974
						CHANNELS 3 Zrotation Yrotation Xrotation
						End Site
						{
							OFFSET -0.00000 -0.00000 1.10919
						}
					}
				}
			}
		}
	}
	JOINT LowerBack
	{
		OFFSET 0 0 0
		CHANNELS 3 Zrotation Yrotation Xrotation
		JOINT Spine
		{
			OFFSET -0.03602 2.12423 -0.30249
			CHANNELS 3 Zrotation Yrotation Xrotation
			JOINT Spine1
			{
				OFFSET 0.02717 2.10043 0.12912
				CHANNELS 3 Zrotation Yrotation Xrotation
				JOINT Neck
				{
					OFFSET 0 0 0
					CHANNELS 3 Zrotation Yrotation Xrotation
					JOINT Neck1
					{
						OFFSET -0.06371 1.88656 0.11602
						CHANNELS 3 Zrotation Yrotation Xrotation
						JOINT Head
						{
							OFFSET 0.08208 1.87759 -0.11505
							CHANNELS 3 Zrotation Yrotation Xrotation
							End Site
							{
								OFFSET 0.03382 1.93090 -0.05483
							}
						}
					}
				}
				JOINT LeftShoulder
				{
					OFFSET 0 0 0
					CHANNELS 3 Zrotation Yrotation Xrotation
					JOINT LeftArm
					{
						OFFSET 3.30903 1.40357 0.20156
						CHANNELS 3 Zrotation Yrotation Xrotation
						JOINT LeftForeArm
						{
							OFFSET 5.43301 -0.00000 0.00000
							CHANNELS 3 Zrotation Yrotation Xrotation
							JOINT LeftHand
							{
								OFFSET 3.15936 -0.00000 0.00000
								CHANNELS 3 Zrotation Yrotation Xrotation
								JOINT LeftFingerBase
								{
									OFFSET 0 0 0
									CHANNELS 3 Zrotation Yrotation Xrotation
									JOINT LeftHandIndex1
									{
										OFFSET 0.71283 -0.00000 0.00000
										CHANNELS 3 Zrotation Yrotation Xrotation
										End Site
										{
											OFFSET 0.57470 -0.00000 0.00000
										}
									}
								}
								JOINT LThumb
								{
									OFFSET 0 0 0
									CHANNELS 3 Zrotation Yrotation Xrotation
									End Site
									{
										OFFSET 0.58347 -0.00000 0.58347
									}
								}
							}
						}
					}
				}
				JOINT RightShoulder
				{
					OFFSET 0 0 0
					CHANNELS 3 Zrotation Yrotation Xrotation
					JOINT RightArm
					{
						OFFSET -3.12947 1.60037 -0.00464
						CHANNELS 3 Zrotation Yrotation Xrotation
						JOINT RightForeArm
						{
							OFFSET -5.34194 -0.00000 0.00000
							CHANNELS 3 Zrotation Yrotation Xrotation
							JOINT RightHand
							{
								OFFSET -3.19351 -0.00000 0.00000
								CHANNELS 3 Zrotation Yrotation Xrotation
								JOINT RightFingerBase
								{
									OFFSET 0 0 0
									CHANNELS 3 Zrotation Yrotation Xrotation
									JOINT RightHandIndex1
									{
										OFFSET -0.74386 -0.00000 0.00000
										CHANNELS 3 Zrotation Yrotation Xrotation
										End Site
										{
											OFFSET -0.59972 -0.00000 0.00000
										}
									}
								}
								JOINT RThumb
								{
									OFFSET 0 0 0
									CHANNELS 3 Zrotation Yrotation Xrotation
									End Site
									{
										OFFSET -0.60888 -0.00000 0.60888
									}
								}
							}
						}
					}
				}
			}
		}
	}
}
MOTION
Frames: 15
Frame Time: 0.0166667
0.00 0.00 0.00 -92.2080 39.2671 -83.7083 0.0000 0.0000 0.0000 24.3210 3.6748 -12.7496 0.2286 3.0776 8.4948 -4.7020 35.1834 -18.0307 0.9156 6.0969 17.0658 0.0000 0.0000 0.0000 -34.5114 -1.8359 -31.7562 -2.7332 -10.2502 29.7907 0.3192 -12.5523 -12.7701 -0.5748 4.8553 -13.4962 -1.4310 -0.5319 27.7226 10.7259 0.7143 4.1116 12.2140 0.7821 -10.6418 -14.1215 -10.3263 1.3467 24.9242 -16.1296 8.3122 9.3621 -7.6912 5.5203 -0.0000 0.0000 0.0000 -73.8314 -56.0711 81.4448 113.5870 -57.7898 -80.2754 -0.0000 0.0000 -22.7650 -17.1125 -11.6702 3.5636 -7.1250 0.0000 -0.0000 -29.5529 18.2216 21.9713 -0.0000 0.0000 0.0000 61.6883 -17.4630 -5.1602 -28.6430 39.7015 -10.5319 0.0000 -0.0000 -15.6699 -26.8903 -33.6164 15.6823 7.1250 -0.0000 -0.0000 7.6278 -66.5326 -3.9691
0.00 0.00 0.00 -89.3043 40.0140 -82.9402 0.0000 0.0000 0.0000 25.0582 -0.6662 -10.0605 0.3822 3.9701 10.9924 -6.4816 40.2420 -23.8235 1.1013 6.6681 18.7359 0.0000 0.0000 0.0000 -32.5900 -7.9308 -48.2538 -9.5709 -17.1614 58.0444 -0.0393 -10.3759 -15.3764 -0.2277 3.0717 -8.4784 -5.0045 0.4011 28.9063 9.7827 0.6540 6.2391 13.1534 0.6712 -8.7958 -13.2398 -9.6834 0.0558 25.0265 -15.7903 11.9004 9.3113 -7.2245 6.7076 -0.0000 -0.0000 0.0000 -79.4686 -58.2868 88.2796 117.1895 -57.0135 -83.3107 -0.0000 0.0000 -31.7463 -15.0601 -4.4323 1.1913 -7.1250 0.0000 -0.0000 -29.9755 24.8852 16.9192 -0.0000 -0.0000 0.0000 64.1842 -10.6814 -6.7278 -27.0390 38.2164 -9.5233 0.0000 -0.0000 -14.5058 -26.4751 -35.0090 15.9461 7.1250 -0.0000 -0.0000 9.3375 -67.8070 -5.1364
0.00 0.00 0.00 -101.5120 73.9639 -97.6471 0.0000 0.0000 0.0000 5.9129 20.3074 -55.8093 15.2966 19.4611 76.1286 0.5728 13.1422 -24.4310 0.2039 -2.9076 -8.0217 0.0000 0.0000 0.0000 -7.8414 -2.3355 -67.7509 -20.2641 -19.9983 90.7721 0.2168 8.5549 5.6511 -0.0646 1.6404 -4.5128 -9.0693 0.2322 33.3307 7.1504 -1.3555 4.7221 13.3592 0.0450 -11.6532 -14.4469 -14.8374 5.1669 24.8506 -21.0882 -0.7576 9.0115 -10.7951 3.2720 0.0000 0.0000 0.0000 -75.7589 -27.3318 78.3020 131.0029 -52.5829 -94.6246 -0.0000 0.0000 -27.9857 -8.7861 1.0723 -0.1657 -7.1250 0.0000 -0.0000 -27.2065 30.2042 10.9756 0.0000 0.0000 0.0000 63.1651 -8.2257 -4.3927 -112.7207 57.9566 -79.5417 0.0000 -0.0000 -28.4696 -27.3675 -39.3338 18.1643 7.1250 -0.0000 -0.0000 12.9884 -72.3158 -8.4700
0.00 0.00 0.00 -131.3120 77.5542 -128.7610 0.0000 0.0000 0.0000 12.3005 21.9359 -55.3051 14.6687 19.3044 74.2367 0.2960 6.3252 -14.5163 0.7254 -5.4422 -15.1743 0.0000 0.0000 0.0000 -11.8478 2.9142 -29.9794 -8.5603 -16.5163 54.5568 -0.0622 6.7410 11.0060 -0.6426 5.1282 -14.2745 -9.2738 -0.4804 28.7273 6.8717 -2.1975 3.4949 13.4227 -0.3734 -10.8199 -16.1191 -16.2603 6.3487 22.7953 -23.3767 0.9451 8.3212 -11.9119 3.9497 -0.0000 0.0000 0.0000 -74.2654 -14.9103 74.6005 130.8429 -52.6499 -94.4974 -0.0000 0.0000 -25.0812 -5.8612 1.6687 -0.1713 -7.1250 0.0000 -0.0000 -25.2620 30.9012 9.5507 -0.0000 0.0000 0.0000 63.2053 -9.2422 0.5062 -125.6096 54.6197 -90.2816 0.0000 -0.0000 -24.9758 -30.5286 -38.1826 20.0291 7.1250 -0.0000 -0.0000 6.8137 -72.2756 -4.4218
0.00 0.00 0.00 -129.1200 79.8733 -127.1270 0.0000 0.0000 0.0000 15.8211 19.8859 -51.5726 14.0452 19.1277 72.3424 -0.0851 9.1635 -11.3915 0.1806 -2.7372 -7.5480 0.0000 0.0000 0.0000 -10.3872 3.4462 -27.3916 -8.6575 -16.5822 54.8979 -0.0619 7.5185 -6.5446 -4.1486 12.3555 -37.0015 -8.6155 -0.5646 27.7996 6.4037 -2.1481 3.2180 12.4751 -0.3931 -10.7479 -16.2901 -16.1102 6.4645 21.9737 -23.1490 1.0782 8.1377 -11.7983 3.8341 0.0000 0.0000 0.0000 -74.2705 -8.9689 71.0377 132.1732 -52.0805 -95.5510 -0.0000 0.0000 -24.3875 -5.2310 2.1774 -0.1993 -7.1250 0.0000 -0.0000 -24.9309 31.3967 9.0701 0.0000 0.0000 0.0000 62.3141 -8.0635 2.9631 -128.8005 53.4680 -92.8650 0.0000 -0.0000 -24.0323 -31.4915 -38.2258 20.7593 7.1250 -0.0000 -0.0000 5.3585 -72.6473 -3.5193
0.00 0.00 0.00 -24.5201 82.4748 -20.7491 0.0000 0.0000 0.0000 13.3324 13.0072 -48.1075 16.0670 19.6250 78.4313 1.6788 0.0714 -24.5504 0.0947 -1.9850 -5.4641 0.0000 0.0000 0.0000 -9.3073 2.6300 -45.0248 -12.8784 -18.7378 68.7475 -2.0448 12.5151 -25.8663 -4.2563 12.4939 -37.5024 -5.9469 -1.2195 27.0475 4.4082 -2.5081 2.6847 9.4350 -0.6289 -11.5487 -15.6479 -15.9742 7.2542 20.3496 -22.6643 -0.7554 7.7836 -11.6457 2.7892 0.0000 -0.0000 0.0000 -80.3279 -0.5189 64.2451 133.1448 -51.6456 -96.3152 -0.0000 0.0000 -16.3717 1.2454 1.4161 0.0308 -7.1250 0.0000 -0.0000 -19.9176 30.9774 7.2178 0.0000 -0.0000 0.0000 56.6336 5.9563 9.9704 -129.2348 53.2995 -93.2135 0.0000 -0.0000 -18.9908 -32.6181 -37.4722 21.2732 7.1250 -0.0000 -0.0000 2.7739 -72.2683 -1.7977
0.00 0.00 0.00 -8.0151 76.0887 -2.9261 0.0000 0.0000 0.0000 12.0535 16.7887 -49.1504 18.5878 19.9521 85.8678 3.0041 -2.0756 -32.3130 1.3304 -7.3040 -20.6192 0.0000 0.0000 0.0000 -4.6779 -2.0900 -57.8321 -19.1832 -19.9840 87.6111 -2.4429 19.3290 -29.3521 -2.7474 10.2744 -29.8699 -2.7652 -2.6031 22.3098 4.3572 -3.4883 0.0621 7.6319 -1.2411 -12.0193 -14.9852 -16.4332 8.1402 19.5435 -23.1985 -1.3879 7.5182 -11.9453 2.3755 0.0000 -0.0000 0.0000 -83.9206 -20.5999 86.2548 128.8259 -53.4582 -92.8854 -0.0000 0.0000 -19.8577 8.4274 5.2401 0.7752 -7.1250 0.0000 -0.0000 -15.0611 34.9428 3.8303 0.0000 -0.0000 0.0000 52.8861 3.4249 5.5775 -117.0916 57.0364 -83.2286 0.0000 -0.0000 -18.4370 -29.0774 -39.3302 19.4142 7.1250 -0.0000 -0.0000 10.4639 -72.9029 -6.9460
0.00 0.00 0.00 -8.5293 75.7762 -2.7269 0.0000 0.0000 0.0000 12.7916 16.2397 -49.6402 19.0549 19.9786 87.2358 3.0944 -1.0134 -33.0870 1.4814 -7.6902 -21.7770 0.0000 0.0000 0.0000 -4.5096 -2.8515 -59.4056 -19.7625 -19.9986 89.3055 -2.7135 19.1255 -30.6959 -3.0495 10.7747 -31.5237 -1.9839 -2.4378 21.6068 4.3727 -3.0706 -0.1490 7.0257 -1.0965 -11.9693 -14.7467 -15.3996 7.0846 18.8894 -21.6749 -1.1210 7.3721 -11.1225 2.2546 0.0000 0.0000 0.0000 -83.4555 -20.0885 84.4415 127.4784 -53.9632 -91.7992 -0.0000 0.0000 -19.4589 11.9555 5.9819 1.2641 -7.1250 0.0000 -0.0000 -12.3267 35.8582 2.8232 0.0000 0.0000 0.0000 53.2230 3.7179 7.9287 -100.9670 59.5406 -69.4831 0.0000 -0.0000 -18.7917 -28.8609 -40.7655 19.7925 7.1250 -0.0000 -0.0000 12.9365 -74.1967 -8.9612
0.00 0.00 0.00 -20.1067 86.1816 -16.0953 0.0000 0.0000 0.0000 13.1283 10.6109 -51.9517 18.8114 19.9661 86.5228 3.0990 -5.8840 -32.1173 1.9852 -8.8351 -25.2810 0.0000 0.0000 0.0000 -4.9424 -6.2812 -53.1907 -20.6949 -19.9884 92.0322 -3.8055 7.7121 -35.5721 -4.4335 12.7159 -38.3142 0.9107 3.4248 18.9897 1.4107 4.9501 -0.3334 -0.3616 2.3443 -11.0925 -0.4366 5.2515 -5.1882 0.2488 7.1581 10.1854 0.5386 3.5554 4.2425 -0.0000 -0.0000 0.0000 -70.3904 -13.4862 50.0885 127.7177 -53.8755 -91.9926 -0.0000 0.0000 -24.1421 25.7862 10.7661 5.1568 -7.1250 0.0000 -0.0000 -1.1609 41.9012 0.0888 -0.0000 -0.0000 0.0000 61.3903 6.3123 41.3389 -93.8566 59.9437 -63.3393 0.0000 -0.0000 -6.6965 -18.1440 -33.7504 10.3184 7.1250 -0.0000 -0.0000 18.3216 -64.1939 -8.6595
0.00 0.00 0.00 -152.9230 86.4556 -149.2660 0.0000 0.0000 0.0000 12.6136 10.5236 -55.8916 19.3428 19.9896 88.0781 2.9728 -11.2171 -31.1157 1.8643 -8.5776 -24.4825 0.0000 0.0000 0.0000 -4.7431 -12.5734 -50.1733 -20.9265 -19.9794 92.7098 -3.9397 5.5811 -36.4994 -3.6085 11.6203 -34.4017 1.7257 7.8615 18.0139 -1.3596 10.7047 -1.7548 -5.3394 4.8843 -11.3735 3.6551 10.7701 -3.1042 -3.5517 14.7019 8.9791 -1.0728 7.2943 4.0956 0.0000 0.0000 0.0000 -63.4614 -16.3257 24.2742 126.4714 -54.3232 -90.9830 -0.0000 0.0000 -37.2898 34.3458 17.8197 11.8111 -7.1250 0.0000 -0.0000 6.4490 51.1403 0.9790 0.0000 0.0000 0.0000 60.5763 23.3998 66.2714 -109.8008 58.4655 -77.0596 0.0000 -0.0000 -1.4372 -7.9656 -31.1871 4.1444 7.1250 -0.0000 -0.0000 26.9128 -59.3348 -9.8624
0.00 0.00 0.00 -152.3640 83.5836 -146.9950 0.0000 0.0000 0.0000 16.2639 14.0502 -70.0330 24.6602 19.4711 103.7420 3.5864 -15.4769 -34.4651 1.9680 -8.7992 -25.1691 0.0000 0.0000 0.0000 -8.6435 -18.6587 -58.8808 -25.2744 -19.3195 105.5914 -4.5358 6.3923 -39.2096 -3.5612 11.5524 -34.1665 1.4810 7.9577 20.2143 -1.0558 10.8493 -2.5420 -5.3829 4.8139 -13.6482 3.8927 12.8775 -1.2271 -3.3150 17.4669 7.4057 -1.0580 8.7087 3.3024 -0.0000 0.0000 0.0000 -67.0052 -18.0504 7.7374 130.9012 -52.6255 -94.5438 -0.0000 0.0000 -40.1016 34.6633 18.7147 12.5094 -7.1250 0.0000 -0.0000 6.7273 52.2420 1.2038 -0.0000 0.0000 0.0000 64.5024 31.9390 80.4880 -123.7409 55.2278 -88.7523 0.0000 0.0000 8.9782 -18.1053 -26.9227 8.4209 7.1250 -0.0000 -0.0000 13.3995 -57.5891 -4.1803
0.00 0.00 0.00 -148.5450 77.5746 -136.8710 0.0000 0.0000 0.0000 8.9774 3.3116 -70.3977 21.0857 19.9717 93.1759 3.3395 -8.8211 -33.1161 1.3445 -7.3412 -20.7302 0.0000 0.0000 0.0000 -3.7570 -12.8514 -49.2814 -16.1371 -19.6384 78.6398 -1.8511 -2.1802 -26.5713 -3.8679 11.9826 -35.6703 4.3656 5.1242 21.3560 1.3517 8.1917 -2.0083 -3.5898 3.4881 -13.8646 4.1093 12.4828 -2.2759 -5.1681 16.6832 2.1130 -1.8147 8.2900 1.8864 -0.0000 0.0000 0.0000 -69.8122 -24.3026 19.2867 124.6520 -54.9372 -89.4994 -0.0000 0.0000 -37.6014 32.5147 16.5763 10.3068 -7.1250 0.0000 -0.0000 4.6611 49.3659 0.5028 -0.0000 0.0000 0.0000 55.9998 25.9729 69.1357 -116.1112 57.2602 -82.4049 0.0000 0.0000 8.6229 -20.5382 -26.9186 9.6264 7.1250 -0.0000 -0.0000 10.8049 -58.1191 -3.4949
0.00 0.00 0.00 -158.9710 76.5062 -145.8760 0.0000 0.0000 0.0000 2.5948 -3.5624 -65.5431 18.1163 19.9147 84.4850 3.0048 -6.6298 -31.5082 0.8654 -5.9317 -16.5862 0.0000 0.0000 0.0000 -6.0044 -3.0268 -43.7326 -13.6672 -19.0100 71.1855 0.3460 -13.5687 -14.3381 -1.5672 7.8996 -22.4095 5.1717 4.1721 21.6665 1.8021 7.2253 -1.7863 -3.2516 3.0176 -13.8223 4.1429 12.4884 -2.8526 -6.2256 16.6872 1.2668 -2.1331 8.2866 1.8209 0.0000 -0.0000 0.0000 -72.1481 -26.0647 21.8185 122.0732 -55.7317 -87.3782 -0.0000 0.0000 -35.1596 32.7836 16.3734 10.2903 -7.1250 0.0000 -0.0000 4.9466 49.1796 0.5110 0.0000 -0.0000 0.0000 52.9736 19.7903 63.8852 -115.7033 57.3502 -82.0617 0.0000 0.0000 10.0376 -18.9359 -27.5930 9.0293 7.1250 -0.0000 -0.0000 12.8971 -58.4348 -4.2835
0.00 0.00 0.00 -184.6420 80.4390 -170.5490 0.0000 0.0000 0.0000 -11.6564 -8.3943 -54.6066 13.3657 18.9102 70.2574 2.3277 -1.6444 -28.4347 0.4190 -4.1550 -11.5131 0.0000 0.0000 0.0000 -0.0573 1.2861 -55.5920 -18.7261 -19.9610 86.2731 -0.4766 -4.9328 -15.7839 -0.6284 5.0726 -14.1157 4.5340 3.8134 21.5513 1.5906 6.5324 -1.8484 -2.9098 2.7278 -13.9222 4.1595 12.3921 -3.0889 -6.9356 16.6544 2.4108 -2.3035 8.2438 2.3166 0.0000 0.0000 0.0000 -71.2841 -22.1283 22.5351 127.2830 -54.0342 -91.6411 -0.0000 0.0000 -38.8500 39.3220 22.3891 17.3280 -7.1250 0.0000 -0.0000 11.8954 57.6180 3.7099 0.0000 0.0000 0.0000 47.8069 11.4172 59.4053 -115.6518 57.3615 -82.0183 0.0000 0.0000 11.3793 -18.6857 -26.7458 8.6542 7.1250 -0.0000 -0.0000 12.6889 -57.5396 -3.9385
0.00 0.00 0.00 -233.0970 78.6253 -219.8770 0.0000 0.0000 0.0000 -25.0140 -6.4084 -48.9969 11.8079 18.3083 65.3787 0.4303 -13.0919 -13.9118 0.2393 -3.1478 -8.6906 0.0000 0.0000 0.0000 12.8588 -4.4040 -63.5317 -21.7091 -19.9298 95.0026 -0.8946 6.5014 -16.8725 -1.2213 7.0095 -19.7436 3.8999 3.4120 20.6769 -0.7559 5.4230 -1.1005 -4.7252 2.2335 -12.4179 3.7766 12.2923 -2.9014 -7.9890 16.6434 2.6609 -2.5818 8.2286 2.4427 0.0000 -0.0000 0.0000 -70.9224 -14.5631 22.8878 129.8058 -53.0735 -93.6707 -0.0000 0.0000 -34.5226 40.4872 19.1725 15.6616 -7.1250 0.0000 -0.0000 13.1358 54.0669 2.9667 0.0000 -0.0000 0.0000 45.8369 6.7004 57.5631 -114.7063 57.5630 -81.2212 0.0000 0.0000 10.6293 -18.2937 -26.3913 8.3598 7.1250 -0.0000 -0.0000 12.9104 -57.1037 -3.8723
